<svg xmlns="http://www.w3.org/2000/svg" xmlns:xlink="http://www.w3.org/1999/xlink" viewBox="0 0 2118.55 1219.56"><defs><style>.cls-1{fill:url(#linear-gradient);}.cls-2{fill:#fff;}.cls-3{fill:none;stroke:#f7931e;stroke-miterlimit:10;stroke-width:10px;}.cls-4{font-size:169.33px;fill:#f7931e;font-family:ErasITC-Demi, Eras Demi ITC;font-weight:300;}</style><linearGradient id="linear-gradient" x1="539.45" y1="609.78" x2="2725.95" y2="609.78" gradientUnits="userSpaceOnUse"><stop offset="0" stop-color="#ffbd41"/><stop offset="1" stop-color="#ff6628"/></linearGradient></defs><g id="Layer_2" data-name="Layer 2"><g id="Layer_1-2" data-name="Layer 1"><path class="cls-1" d="M2032.14,797V417.14a79.1,79.1,0,0,0,32.61-19.68c6-6.41,23.7-27.1,23.1-55.9-1-47.67-51.36-79.09-79.09-79.09A78.34,78.34,0,0,0,1962,277.84L1710.3,76.51a59.25,59.25,0,0,0,2.16-15.93A60.58,60.58,0,1,0,1609.71,104l-125,266.12A97.66,97.66,0,0,0,1411.89,384L1089.21,232.39a87.4,87.4,0,0,0,.56-10,91.5,91.5,0,1,0-183,1.23c.66,50.23,42.35,90.85,92.58,90.27a91.41,91.41,0,0,0,72.95-37.71l306.56,144.07a97.44,97.44,0,0,0,3.14,96.24L1212.51,686l-1.55,1.56a132.45,132.45,0,0,1,16.85,16.89c-1.56-2.09-3.52-4.8-5.68-8.06L1238,717c-1.28-1.49-2.92-3.44-4.8-5.76L1233,711a142.46,142.46,0,0,1,8.12,12.28l1.1-1.1L1415.1,549.36c.84.5,2.07,1.22,3.58,2a96.24,96.24,0,0,0,13.19,5.91,97.59,97.59,0,0,0,116-40.56l367.75,320.48A125.44,125.44,0,0,0,1891.7,881s-5.08,17-5.06,34.74c0,3.18.17,6.4.17,6.4q.17,3.17.48,6.29l-327.69,111a94.56,94.56,0,0,0-152.46-57.91L1250.93,867.26a144.05,144.05,0,0,0,12.79-59.5,145.53,145.53,0,0,0-1.54-21,151.91,151.91,0,0,1-7,66.4c-4.68,13.51-21.74,56.05-68,79.72-51.74,26.5-101.52,9.63-111.74,5.88-35.34-13-55.59-36.93-63.39-46.39-5.86-7.12-21.49-26.48-29.4-54.89a155.41,155.41,0,0,1-4.23-59.27,143.84,143.84,0,0,0,47.49,139.29l-137,187.23c-1.45-.14-2.95-.19-4.45-.19a57.47,57.47,0,1,0,45.92,22.82l135.78-185.54a144.32,144.32,0,0,0,159-35.61L1379.19,1019a94.17,94.17,0,0,0-7.15,39.74c1.86,50.84,44.35,91.44,95.22,91.07a94.48,94.48,0,0,0,86.93-59.08L1901.33,973.2a121.08,121.08,0,0,0,176,41.89,129.18,129.18,0,0,0,10.77-8.66,131.6,131.6,0,0,0,11.58-11.8,120.78,120.78,0,0,0,23.27-40.38s6.25-19.27,6.25-38.49A121.16,121.16,0,0,0,2032.14,797Zm-46.92-.28a117.39,117.39,0,0,0-32.14,11L1562.41,467.27c0-.56,0-1.08,0-1.64a97.29,97.29,0,0,0-35.66-75.34l126.51-269.17a60.17,60.17,0,0,0,28.11-7.69L1934,315.51a79.18,79.18,0,0,0,51.26,101.63Z" transform="translate(-10.63)"/><polygon class="cls-2" points="979.43 741.69 972.86 756.58 977.01 740.56 979.43 741.69"/><circle class="cls-3" cx="1109.6" cy="802.24" r="146.38"/><path d="M186.72,626.48c-21.39,11-42.27,16.25-69.54,16.31C54,642.93,10.77,606.93,10.63,546.4c-.13-58.32,40.1-95.92,109.78-96.07,20.18-.05,41.67,4.06,59.56,12.57l1.33,43.19-23.84.06-10.88-44,21.27,3.9,0,14.6c-15.06-10.63-28-14.7-41.43-14.66-33.26.07-61.52,25.15-61.4,80.3S92.34,627.11,126.3,627c12.86,0,21.55-3.25,34.83-9.84l-23.32,17.88,0-21.08c-.05-22.47-.41-43.49-1.07-66.16l50.77-.11c-.57,22.19-.82,44.14-.77,67.16Zm-77.29-63.7,0-14.89,93.62-.21,0,14.89-36,4.45-20.11.05Z" transform="translate(-10.63)"/><path d="M216.55,569.86c-.09-42.62,33.9-70.74,77.87-70.84,43.8-.1,78.09,27.27,78.19,70.49s-30.3,71.82-77.87,71.93C246.78,641.54,216.65,612.48,216.55,569.86Zm104,.37c-.09-39.35-8.93-56.77-26.13-56.73-17.36,0-25.95,17.49-25.86,56.84.09,39.55,8.75,56.66,26.12,56.62C311.91,626.92,320.66,609.77,320.58,570.23Z" transform="translate(-10.63)"/><path d="M476.45,617c14.78,0,25.07-10,34.73-23.54l3.67,4.48c-15.16,29.69-33.78,43.09-61.07,43.16-34.82.07-61.4-24.66-61.5-69.86s32.81-72.49,67.49-72.57c26.6-.06,39.47,13.09,53.73,37.68l-3.06,5.41C498.35,528.65,489.59,522,477,522.06c-18.6,0-32.78,15.71-32.7,48.49C444.4,601,457.55,617,476.45,617Zm83,6.75,0,12.9-60.07,3.31-4-24.67-.21-92,1.8-3-.13-57.86-21.55-2.72,0-11.71,64.93-12.62,5,2.81L544,476.91l.36,159.76-20.92-20.09Z" transform="translate(-10.63)"/><path d="M658.94,616.56c14.78,0,25.06-9.95,34.73-23.53l3.66,4.48c-15.15,29.68-33.77,43.09-61.06,43.15-34.82.08-61.4-24.66-61.5-69.86s32.81-72.48,67.49-72.56c26.6-.06,39.47,13.09,53.73,37.68l-3.06,5.41c-12.09-13.1-20.85-19.71-33.41-19.68-18.61,0-32.78,15.7-32.7,48.48C626.89,600.6,640,616.61,658.94,616.56Zm83,6.76,0,12.9-60.08,3.31-4-24.67-.21-92,1.8-3L679.32,462l-21.55-2.73,0-11.7,64.93-12.62,5,2.81-1.14,38.76.36,159.76L706,616.16Z" transform="translate(-10.63)"/><path d="M814.3,558.82c12.67-3.38,34.45-8.62,48.92-11.75l0,11.58c-14.48,3.33-31,7.43-40,11.18-13.89,5.33-22.93,14.69-22.9,27.73,0,13.89,8.14,20.29,18.51,20.27,5.87,0,10.68-2.23,20.49-8.72l12.33-8.39,3.2,4L842,617.4c-14.85,14.27-24.39,22.85-46.68,22.9-23.75.06-40.31-12.55-40.36-35.36C754.89,585.22,767,571.31,814.3,558.82Zm23.48,54.48-.15-69.41c-.06-24.57-5.35-31.81-25-31.76-7.51,0-15.4.86-28.75,4l21.13-10.84-2.18,19.25c-.73,18.44-10.64,25.9-22.48,25.92-11,0-18.32-4.71-20.73-13.84,1.57-23.07,26.26-38.76,70.51-38.86,39.4-.09,55,14.91,55.1,52l.14,62.17c0,5.47,2.55,8.1,7,8.09,3.23,0,5.72-1.5,9.31-6.12l8.15,4.88c-7.34,15.16-18.28,21-36.93,21C852,639.94,840.48,630.08,837.78,613.3Z" transform="translate(-10.63)"/><path d="M933.83,577.57l0-16.23c0-15.25-.36-20.84-1-31.93L914,527l0-10.9,60.58-18.57,5.28,3,2.88,34,.09,43c0,17.19.41,45.74,1.06,58.21l-50.81.12C933.63,623.31,933.87,594.76,933.83,577.57Zm-17.17,45.35L946,617.31l32.3-.07,29.37,5.48,0,12.9-91,.21Zm43.34-82,23.06-.06-4.12,7.55c5.32-34,26.68-51,45-51,13.34,0,24.13,6.63,26.74,20.37-.64,14.43-9.47,22.66-21.76,22.69-9.28,0-16.46-4.06-23.78-12.8l-9-10.56,12.41,4c-11.06,7.3-22.08,22-26,38.54l-22.54-2Z" transform="translate(-10.63)"/><path d="M1138.82,615.48c14.78,0,25.06-10,34.73-23.53l3.66,4.47c-15.15,29.69-33.77,43.1-61.06,43.16-34.82.08-61.4-24.66-61.5-69.86s32.81-72.49,67.49-72.57c26.6-.06,39.47,13.09,53.73,37.68l-3.06,5.42c-12.09-13.1-20.85-19.72-33.41-19.69-18.61,0-32.78,15.71-32.7,48.49C1106.77,599.52,1119.92,615.52,1138.82,615.48Zm83,6.75,0,12.91-60.08,3.3-4-24.66-.21-92,1.8-3-.13-57.86-21.55-2.72,0-11.7,64.93-12.63,5,2.81-1.14,38.77.36,159.76-20.92-20.09Z" transform="translate(-10.63)"/><text class="cls-4" transform="translate(983.9 848.03)">.ml</text></g></g></svg>